<svg width="10" height="10" viewBox="0 0 10 10" fill="none" xmlns="http://www.w3.org/2000/svg">
<path d="M6.04958 4.98895L6.03853 5L6.04958 5.01105L9.91551 8.87699C10.0069 8.96838 10.0069 9.11693 9.91551 9.20833L9.20833 9.91551C9.11693 10.0069 8.96838 10.0069 8.87699 9.91551L8.21605 9.25458L5.01105 6.04958L5 6.03853L4.98895 6.04958L1.1227 9.91551C1.0313 10.0069 0.882759 10.0069 0.791361 9.91551L0.0841735 9.20833C-0.00722451 9.11693 -0.00722451 8.96838 0.0841731 8.87699L3.95042 5.01105L3.96147 5L3.95042 4.98895L0.0841735 1.1227C-0.00722451 1.0313 -0.00722451 0.882759 0.0841735 0.791361L0.791671 0.084176L0.791674 0.0841735C0.883072 -0.00722451 1.03162 -0.00722451 1.12301 0.0841731L4.98895 3.95042L5 3.96147L5.01105 3.95042L8.87699 0.0844861C8.96838 -0.00691194 9.11693 -0.00691194 9.20833 0.0844861L9.91551 0.791674C10.0069 0.883072 10.0069 1.03162 9.91551 1.12301L9.25458 1.78395L6.04958 4.98895Z" fill="#9D9D99" stroke="#9D9D99" stroke-width="0.03125"/>
</svg>
